<?xml version="1.0" encoding="UTF-8"?>
<svg id="Layer_2" data-name="Layer 2" xmlns="http://www.w3.org/2000/svg" viewBox="0 0 257.91 54.73">
  <defs>
    <style>
      .cls-1 {
        fill: #eeb569;
      }

      .cls-1, .cls-2 {
        stroke-width: 0px;
      }

      .cls-2 {
        fill: #00a39b;
      }
    </style>
  </defs>
  <g id="Wordmark_Layer" data-name="Wordmark Layer">
    <path class="cls-2" d="M0,38.42V8.85C0,5.7,1.76,3.88,4.67,3.88h11.52c10.18,0,15.39,4.24,15.39,12.24,0,5.64-2.85,9.58-8.3,11.09-.61.18-1.27.3-1.94.36l10.3,12.49c.36.42-1.33,3.27-5.15,3.27-2.61,0-4-1.09-5.88-3.64l-8.61-10.73h-3.09v10.3c0,2.55-1.33,4.06-3.94,4.06h-1.21c-2.42,0-3.76-1.76-3.76-4.91ZM22.67,16.73c0-3.88-2.42-5.88-7.27-5.88h-6.61v11.76h6.79c4.79,0,7.09-2.24,7.09-5.88Z"/>
    <path class="cls-2" d="M49.52,12.85c8.79,0,14.73,6.12,14.73,14.79v.55c-.06,1.45-.49,2.24-2.06,2.24h-20.49l.18.97c.91,3.88,4.12,6.36,8.48,6.36s6.97-1.94,8.3-4.3c.06-.12,4.18.24,4.18,3.64,0,1.64-1.15,3.33-3.27,4.61-2.18,1.33-5.33,2.24-9.46,2.24-9.64,0-15.94-6-15.94-15.39s6.42-15.7,15.33-15.7ZM49.46,18.73c-4.06,0-7.09,2.91-7.64,7.03h14.55c-.24-4.3-2.85-7.03-6.91-7.03Z"/>
    <path class="cls-2" d="M82.91,20c-2.42,0-4.61,1.52-5.82,3.64v15.64c0,3.09-1.58,4.06-3.76,4.06h-.91c-2.3,0-3.88-.91-3.88-4.06V14.18c0-.3,1.52-.97,3.21-.97,2.12,0,4.42.91,5.09,4.85,2-2.97,4.85-5.21,9.15-5.21,4.91,0,8,2.36,9.46,6.06,2-3.39,5.03-6.06,9.94-6.06,7.52,0,10.67,4.79,10.67,11.76v14.67c0,3.09-1.58,4.06-3.76,4.06h-.91c-2.3,0-3.88-.91-3.88-4.06v-13.33c0-3.88-1.7-5.94-5.15-5.94-2.42,0-4.61,1.52-5.82,3.64v15.64c0,3.09-1.58,4.06-3.76,4.06h-.91c-2.24,0-3.88-.91-3.88-4.06v-13.15c0-4.06-1.7-6.12-5.09-6.12Z"/>
    <path class="cls-2" d="M135.71,12.85c8.79,0,14.73,6.12,14.73,14.79v.55c-.06,1.45-.49,2.24-2.06,2.24h-20.49l.18.97c.91,3.88,4.12,6.36,8.48,6.36s6.97-1.94,8.3-4.3c.06-.12,4.18.24,4.18,3.64,0,1.64-1.15,3.33-3.27,4.61-2.18,1.33-5.33,2.24-9.46,2.24-9.64,0-15.94-6-15.94-15.39s6.42-15.7,15.33-15.7ZM135.64,18.73c-4.06,0-7.09,2.91-7.64,7.03h14.55c-.24-4.3-2.85-7.03-6.91-7.03Z"/>
    <path class="cls-2" d="M153.71,28.36c0-9.39,5.58-15.52,13.76-15.52,4.24,0,7.64,1.94,9.33,4.48V1.94c0-.24,1.51-.97,3.21-.97,2.55,0,5.33,1.33,5.33,6.85v31.46c0,3.09-1.51,4.06-3.76,4.06h-.85c-1.94,0-3.39-.67-3.7-2.97-.06-.67-.12-1.33-.12-2.06-2,3.46-5.27,5.64-9.64,5.64-8,0-13.58-6.3-13.58-15.58ZM169.53,19.7c-4.61,0-7.7,3.33-7.7,8.67s3.15,8.73,7.58,8.73c4.06,0,7.46-2.85,7.46-7.09v-5.58c-1.27-2.91-3.7-4.73-7.33-4.73Z"/>
    <path class="cls-1" d="M196.25,43.33c-2.97,0-4.79-1.7-4.79-4.42s1.76-4.42,4.79-4.42,4.79,1.7,4.79,4.42-1.82,4.42-4.79,4.42ZM196.74,30.12h-.91c-2.24,0-3.82-.97-3.82-4.12V4.06c0-3.09,1.58-4.06,3.82-4.06h.85c2.3,0,3.88.91,3.88,4.06v21.94c0,3.09-1.64,4.12-3.82,4.12Z"/>
    <path class="cls-2" d="M210.13,20.18h-2.36c-2.48,0-3.58-1.09-3.58-3.15v-.54c0-1.94,1.09-2.97,3.58-2.97h2.42v-1.58c0-8.18,4.06-11.33,10.18-11.33,2.79,0,4.73.67,5.94,1.58,1.09.85,1.58,1.94,1.58,3.09,0,2.06-1.7,3.64-1.82,3.46-.85-.79-2.36-1.58-4.06-1.58-2.49,0-3.64,1.39-3.64,4.79v1.58h3.82c2.49,0,3.58,1.09,3.58,3.15v.48c0,2-1.09,3.03-3.58,3.03h-3.52v19.09c0,3.15-1.51,4.06-3.76,4.06h-.91c-2.18,0-3.88-.97-3.88-4.06v-19.09Z"/>
    <path class="cls-2" d="M235.05,52.37l4.85-11.15c-1.33-.24-2.24-.67-2.73-1.94l-10.18-23.58c-.18-.49,2.06-2.49,4.67-2.55,2.06,0,3.76,1.03,4.85,4.3l6.3,16.97,5.7-16.91c1.03-3.33,2.85-4.36,4.79-4.36,2.36,0,4.79,2,4.61,2.42l-13.45,34.97c-1.27,3.21-2.97,4.18-4.85,4.18-2.48,0-4.73-1.94-4.54-2.36Z"/>
  </g>
</svg>