<?xml version="1.0" encoding="UTF-8"?>
<svg id="Layer_2" data-name="Layer 2" xmlns="http://www.w3.org/2000/svg" viewBox="0 0 348.22 70.62">
  <defs>
    <style>
      .cls-1 {
        fill: #eeb569;
      }

      .cls-1, .cls-2, .cls-3 {
        stroke-width: 0px;
      }

      .cls-2 {
        fill: #91c7c4;
      }

      .cls-3 {
        fill: #00a39b;
      }
    </style>
  </defs>
  <g id="Wordmark_Layer" data-name="Wordmark Layer">
    <path class="cls-2" d="M50.17,0h-29.71C9.18,0,0,9.18,0,20.46v29.71c0,11.28,9.18,20.46,20.46,20.46h29.71c11.28,0,20.46-9.18,20.46-20.46v-29.71c0-11.28-9.18-20.46-20.46-20.46ZM66.11,50.17c0,4.24-1.66,8.24-4.69,11.26-3.02,3.02-7.02,4.69-11.26,4.69h-29.71c-4.24,0-8.24-1.66-11.26-4.69-3.02-3.02-4.69-7.02-4.69-11.26v-29.71c0-4.24,1.66-8.24,4.69-11.26,3.02-3.02,7.02-4.69,11.26-4.69h29.71c4.24,0,8.24,1.66,11.26,4.69,3.02,3.02,4.69,7.02,4.69,11.26v29.71Z"/>
    <g>
      <rect class="cls-3" x="31.51" y="52.99" width="7.54" height="7.54" rx="2.89" ry="2.89"/>
      <path class="cls-3" d="M33.92,13.33c3,0,5.31.09,7.22.21-.29-2.78-1.57-4.93-3.22-4.93h-5.3c-1.66,0-2.94,2.17-3.22,4.97,1.25-.17,2.68-.25,4.37-.26.05,0,.1,0,.15,0Z"/>
      <path class="cls-1" d="M39.33,43.49l-.27,3.32c1.05.24,2,.44,2.75.59.98.19,1.94-.37,2.13-1.25l.02-.1c.18-.84-.42-1.66-1.36-1.84-.87-.17-2.01-.41-3.26-.71h0s0,0-.01,0Z"/>
      <path class="cls-1" d="M40.51,25.4l-.25,3.35c.54.15,1.04.33,1.48.52,1.58.71,1.78,1.42,1.76,2.08,0,.29-.03.84-1.52,1.3-.61.19-1.31.31-2.04.4-.43.05-.86.09-1.29.13-.43.03-.84.06-1.23.09-.77.05-1.44.09-2.01.18-.34.05-.65.11-.92.2-.07.02-.15.04-.23.06s-.18.04-.29.07c-.05.01-.1.02-.16.03-.16.03-.34.07-.52.1-.1.02-.2.04-.3.06-.51.1-1.06.22-1.63.37-.23.06-.45.13-.68.2-.53.17-1.06.38-1.57.65-1.82.97-2.89,2.46-3.07,4.33-.15,1.52.94,2.91,3.26,4.11.61.32,1.32.63,2.12.94l-.12-1.35c-.04-.57-.16-1.41-.24-2.47h0s-.06-.03-.09-.05c-1.07-.58-1.08-2.13-.01-2.7,0,0,.02,0,.02-.01.88-.47,2.06-.7,3.11-.91.59-.12,1.15-.23,1.62-.38.27-.08,1.26-.15,1.98-.19,1.66-.11,3.72-.24,5.49-.79,3.22-.99,3.95-2.88,3.99-4.3.08-2.77-2.01-4.3-3.79-5.09-.87-.39-1.85-.69-2.84-.94h0s0,0,0,0c0,0-.02,0-.03,0Z"/>
      <path class="cls-1" d="M50.05,17.11c-.91-.44-1.62-.85-1.78-1.08-.98-.87-1.39-1.63-4.67-2.3-.75-.07-1.55-.14-2.44-.19-1.91-.12-4.22-.21-7.22-.21-.05,0-.1,0-.15,0-1.68,0-3.12.09-4.37.26-1.05.14-1.96.34-2.77.6-3.87,1.25-4.45,3.75-4.45,5.14,0,2.53,1.43,4.52,4.24,5.91,1.15.57,2.45.99,3.73,1.33l-.26-3.52s-.01,0-.02,0h0c-.59-.2-1.16-.42-1.67-.67-2.09-1.03-2.35-2.18-2.35-3.05,0-.73,0-2.69,7.95-2.72.04,0,.09,0,.13,0,4.06,0,8.05,3.02,13.21,3.55,1.89.2,3.66-.28,3.74-1.1.15-1.52-.83-1.94-.83-1.94ZM45.56,17.78c-.57,0-1.04-.47-1.04-1.04s.47-1.04,1.04-1.04,1.04.47,1.04,1.04-.47,1.04-1.04,1.04Z"/>
      <path class="cls-3" d="M29.88,23.05l.26,3.52.34,4.51c0,.1.03.21.07.3l.13,3.16c.23-.07.46-.14.68-.2.57-.15,1.12-.27,1.63-.37.1-.02.2-.04.3-.06.18-.04.36-.07.52-.1.05-.01.11-.02.16-.03.1-.02.2-.04.29-.07s.17-.04.23-.06c.27-.08.57-.15.92-.2.57-.08,1.24-.13,2.01-.18.39-.03.81-.05,1.23-.09.43-.03.86-.08,1.29-.13l.07-1.65c.04-.1.07-.21.08-.32l.17-2.33.25-3.35s.02,0,.03,0h0s.22-3.34.22-3.34l.06-.82s0-.1,0-.15v-.02c.06-.87-.57-1.63-1.44-1.73-1.98-.23-4.07-.4-5.88-.4-.04,0-.09,0-.13,0-.79,0-1.49.03-2.13.07-.9.06-1.58.84-1.52,1.74l.03.48s0,0,0,0v.04s.12,1.75.12,1.75h0s.01,0,.02,0Z"/>
      <path class="cls-3" d="M31.42,44.58l.35,3.86c0,.08.02.16.04.24.15.95,1.04,1.67,2.05,1.67h2.83c.17,0,.33-.02.49-.06.49-.08,1.04-.34,1.45-1.12.2-.38.31-.81.34-1.24l.09-1.13.27-3.32s0,0,.01,0h0l.06-.94h0s.17-2.56.17-2.56c.04-.68-.59-1.24-1.34-1.18-.35.03-.7.05-1.02.07-.71.05-1.69.11-1.96.19-.47.15-1.02.26-1.6.38-.56.11-1.17.24-1.74.4-.46.13-.79.49-.86.91h0c.08,1.06.2,1.89.24,2.47l.12,1.35Z"/>
    </g>
    <path class="cls-3" d="M90.32,50.59v-29.58c0-3.15,1.76-4.97,4.67-4.97h11.52c10.18,0,15.39,4.24,15.39,12.24,0,5.64-2.85,9.58-8.3,11.09-.61.18-1.27.3-1.94.36l10.3,12.49c.36.42-1.33,3.27-5.15,3.27-2.61,0-4-1.09-5.88-3.64l-8.61-10.73h-3.09v10.3c0,2.55-1.33,4.06-3.94,4.06h-1.21c-2.42,0-3.76-1.76-3.76-4.91ZM112.98,28.89c0-3.88-2.42-5.88-7.27-5.88h-6.61v11.76h6.79c4.79,0,7.09-2.24,7.09-5.88Z"/>
    <path class="cls-3" d="M139.83,25.01c8.79,0,14.73,6.12,14.73,14.79v.55c-.06,1.45-.49,2.24-2.06,2.24h-20.49l.18.97c.91,3.88,4.12,6.36,8.48,6.36s6.97-1.94,8.3-4.3c.06-.12,4.18.24,4.18,3.64,0,1.64-1.15,3.33-3.27,4.61-2.18,1.33-5.33,2.24-9.46,2.24-9.64,0-15.94-6-15.94-15.39s6.42-15.7,15.33-15.7ZM139.77,30.89c-4.06,0-7.09,2.91-7.64,7.03h14.55c-.24-4.3-2.85-7.03-6.91-7.03Z"/>
    <path class="cls-3" d="M173.23,32.16c-2.42,0-4.61,1.52-5.82,3.64v15.64c0,3.09-1.58,4.06-3.76,4.06h-.91c-2.3,0-3.88-.91-3.88-4.06v-25.09c0-.3,1.52-.97,3.21-.97,2.12,0,4.42.91,5.09,4.85,2-2.97,4.85-5.21,9.15-5.21,4.91,0,8,2.36,9.46,6.06,2-3.39,5.03-6.06,9.94-6.06,7.52,0,10.67,4.79,10.67,11.76v14.67c0,3.09-1.58,4.06-3.76,4.06h-.91c-2.3,0-3.88-.91-3.88-4.06v-13.33c0-3.88-1.7-5.94-5.15-5.94-2.42,0-4.61,1.52-5.82,3.64v15.64c0,3.09-1.58,4.06-3.76,4.06h-.91c-2.24,0-3.88-.91-3.88-4.06v-13.15c0-4.06-1.7-6.12-5.09-6.12Z"/>
    <path class="cls-3" d="M226.02,25.01c8.79,0,14.73,6.12,14.73,14.79v.55c-.06,1.45-.49,2.24-2.06,2.24h-20.49l.18.97c.91,3.88,4.12,6.36,8.48,6.36s6.97-1.94,8.3-4.3c.06-.12,4.18.24,4.18,3.64,0,1.64-1.15,3.33-3.27,4.61-2.18,1.33-5.33,2.24-9.46,2.24-9.64,0-15.94-6-15.94-15.39s6.42-15.7,15.33-15.7ZM225.96,30.89c-4.06,0-7.09,2.91-7.64,7.03h14.55c-.24-4.3-2.85-7.03-6.91-7.03Z"/>
    <path class="cls-3" d="M244.02,40.53c0-9.39,5.58-15.52,13.76-15.52,4.24,0,7.64,1.94,9.33,4.48v-15.39c0-.24,1.51-.97,3.21-.97,2.55,0,5.33,1.33,5.33,6.85v31.46c0,3.09-1.51,4.06-3.76,4.06h-.85c-1.94,0-3.39-.67-3.7-2.97-.06-.67-.12-1.33-.12-2.06-2,3.46-5.27,5.64-9.64,5.64-8,0-13.58-6.3-13.58-15.58ZM259.84,31.86c-4.61,0-7.7,3.33-7.7,8.67s3.15,8.73,7.58,8.73c4.06,0,7.46-2.85,7.46-7.09v-5.58c-1.27-2.91-3.7-4.73-7.33-4.73Z"/>
    <path class="cls-1" d="M286.57,55.5c-2.97,0-4.79-1.7-4.79-4.42s1.76-4.42,4.79-4.42,4.79,1.7,4.79,4.42-1.82,4.42-4.79,4.42ZM287.06,42.29h-.91c-2.24,0-3.82-.97-3.82-4.12v-21.94c0-3.09,1.58-4.06,3.82-4.06h.85c2.3,0,3.88.91,3.88,4.06v21.94c0,3.09-1.64,4.12-3.82,4.12Z"/>
    <path class="cls-3" d="M300.45,32.35h-2.36c-2.48,0-3.58-1.09-3.58-3.15v-.54c0-1.94,1.09-2.97,3.58-2.97h2.42v-1.58c0-8.18,4.06-11.33,10.18-11.33,2.79,0,4.73.67,5.94,1.58,1.09.85,1.58,1.94,1.58,3.09,0,2.06-1.7,3.64-1.82,3.46-.85-.79-2.36-1.58-4.06-1.58-2.49,0-3.64,1.39-3.64,4.79v1.58h3.82c2.49,0,3.58,1.09,3.58,3.15v.48c0,2-1.09,3.03-3.58,3.03h-3.52v19.09c0,3.15-1.51,4.06-3.76,4.06h-.91c-2.18,0-3.88-.97-3.88-4.06v-19.09Z"/>
    <path class="cls-3" d="M325.36,64.53l4.85-11.15c-1.33-.24-2.24-.67-2.73-1.94l-10.18-23.58c-.18-.49,2.06-2.49,4.67-2.55,2.06,0,3.76,1.03,4.85,4.3l6.3,16.97,5.7-16.91c1.03-3.33,2.85-4.36,4.79-4.36,2.36,0,4.79,2,4.61,2.42l-13.45,34.97c-1.27,3.21-2.97,4.18-4.85,4.18-2.48,0-4.73-1.94-4.54-2.36Z"/>
  </g>
</svg>